<?xml version="1.0" standalone="no"?>
<!DOCTYPE svg PUBLIC "-//W3C//DTD SVG 20010904//EN"
 "http://www.w3.org/TR/2001/REC-SVG-20010904/DTD/svg10.dtd">
<svg version="1.0" xmlns="http://www.w3.org/2000/svg"
 width="64.000000pt" height="64.000000pt" viewBox="0 0 64.000000 64.000000"
 preserveAspectRatio="xMidYMid meet">
<g transform="translate(0.000000,64.000000) scale(0.100000,-0.100000)"
fill="#ffffff" stroke="none">
<path d="M294 573 c-55 -11 -90 -100 -64 -163 8 -20 65 -70 177 -155 l165
-125 -252 0 -253 0 92 71 c91 71 92 71 74 93 -10 11 -19 23 -20 25 -3 5 -174
-128 -195 -151 -26 -29 -22 -63 8 -87 25 -20 39 -21 288 -21 267 0 296 4 319
41 23 37 -1 64 -172 194 -173 131 -193 154 -171 196 17 30 54 22 58 -13 3 -24
8 -28 33 -28 26 0 29 3 29 34 0 32 -37 86 -59 86 -5 0 -15 2 -23 4 -7 2 -23 1
-34 -1z"/>
</g>
</svg>
